<mxfile host="app.diagrams.net" modified="2021-08-10T06:26:42.799Z" agent="5.0 (X11)" etag="t2mJYAKTOAvcFTNvqd0B" version="14.9.5" type="github">
  <diagram name="Page-1" id="bfe91b75-5d2c-26a0-9c1d-138518896778">
    <mxGraphModel dx="1182" dy="1592" grid="1" gridSize="10" guides="1" tooltips="1" connect="1" arrows="1" fold="1" page="1" pageScale="1" pageWidth="1100" pageHeight="850" background="none" math="0" shadow="0">
      <root>
        <mxCell id="0" />
        <mxCell id="1" parent="0" />
        <mxCell id="7c3789c024ecab99-55" style="edgeStyle=none;html=1;labelBackgroundColor=none;endArrow=none;endFill=0;strokeWidth=2;fontFamily=Verdana;fontSize=28;fontColor=#6881B3;" parent="1" source="7c3789c024ecab99-8" target="7c3789c024ecab99-54" edge="1">
          <mxGeometry relative="1" as="geometry">
            <mxPoint x="1660" y="837.0000000000002" as="targetPoint" />
          </mxGeometry>
        </mxCell>
        <mxCell id="7c3789c024ecab99-8" value="" style="fontColor=#0066CC;verticalAlign=top;verticalLabelPosition=bottom;labelPosition=center;align=center;html=1;fillColor=#CCCCCC;strokeColor=#6881B3;gradientColor=none;gradientDirection=north;strokeWidth=2;shape=mxgraph.networks.firewall;rounded=0;shadow=0;comic=0;" parent="1" vertex="1">
          <mxGeometry x="1490" y="847" width="100" height="100" as="geometry" />
        </mxCell>
        <mxCell id="7c3789c024ecab99-52" style="edgeStyle=none;html=1;labelBackgroundColor=none;endArrow=none;endFill=0;strokeWidth=2;fontFamily=Verdana;fontSize=15;fontColor=#036897;" parent="1" source="7c3789c024ecab99-10" target="7c3789c024ecab99-8" edge="1">
          <mxGeometry relative="1" as="geometry">
            <mxPoint x="1549.9999999999995" y="917" as="targetPoint" />
          </mxGeometry>
        </mxCell>
        <mxCell id="7c3789c024ecab99-10" value="" style="fontColor=#0066CC;verticalAlign=top;verticalLabelPosition=bottom;labelPosition=center;align=center;html=1;fillColor=#CCCCCC;strokeColor=#6881B3;gradientColor=none;gradientDirection=north;strokeWidth=2;shape=mxgraph.networks.router;rounded=0;shadow=0;comic=0;" parent="1" vertex="1">
          <mxGeometry x="1300" y="882" width="100" height="30" as="geometry" />
        </mxCell>
        <mxCell id="7c3789c024ecab99-53" value="Internet" style="html=1;fillColor=#CCCCCC;strokeColor=#6881B3;gradientColor=none;gradientDirection=north;strokeWidth=2;shape=mxgraph.networks.cloud;fontColor=#6881B3;rounded=0;shadow=0;comic=0;align=center;fontSize=28;" parent="1" vertex="1">
          <mxGeometry x="1760" y="689" width="330" height="140" as="geometry" />
        </mxCell>
        <mxCell id="7c3789c024ecab99-56" style="edgeStyle=none;html=1;labelBackgroundColor=none;endArrow=none;endFill=0;strokeWidth=2;fontFamily=Verdana;fontSize=28;fontColor=#6881B3;" parent="1" source="7c3789c024ecab99-54" target="7c3789c024ecab99-53" edge="1">
          <mxGeometry relative="1" as="geometry" />
        </mxCell>
        <mxCell id="7c3789c024ecab99-77" style="edgeStyle=none;html=1;labelBackgroundColor=none;endArrow=none;endFill=0;strokeWidth=2;fontFamily=Verdana;fontSize=28;fontColor=#6881B3;" parent="1" source="7c3789c024ecab99-54" target="7c3789c024ecab99-76" edge="1">
          <mxGeometry relative="1" as="geometry" />
        </mxCell>
        <mxCell id="7c3789c024ecab99-54" value="" style="fontColor=#0066CC;verticalAlign=top;verticalLabelPosition=bottom;labelPosition=center;align=center;html=1;fillColor=#CCCCCC;strokeColor=#6881B3;gradientColor=none;gradientDirection=north;strokeWidth=2;shape=mxgraph.networks.router;rounded=0;shadow=0;comic=0;" parent="1" vertex="1">
          <mxGeometry x="1640" y="882" width="100" height="30" as="geometry" />
        </mxCell>
        <mxCell id="7c3789c024ecab99-60" style="edgeStyle=none;html=1;labelBackgroundColor=none;endArrow=none;endFill=0;strokeWidth=2;fontFamily=Verdana;fontSize=28;fontColor=#6881B3;" parent="1" source="7c3789c024ecab99-57" target="7c3789c024ecab99-54" edge="1">
          <mxGeometry relative="1" as="geometry" />
        </mxCell>
        <mxCell id="7c3789c024ecab99-57" value="" style="fontColor=#0066CC;verticalAlign=top;verticalLabelPosition=bottom;labelPosition=center;align=center;html=1;fillColor=#CCCCCC;strokeColor=#6881B3;gradientColor=none;gradientDirection=north;strokeWidth=2;shape=mxgraph.networks.storage;rounded=0;shadow=0;comic=0;" parent="1" vertex="1">
          <mxGeometry x="1510" y="1079" width="100" height="100" as="geometry" />
        </mxCell>
        <mxCell id="7c3789c024ecab99-59" style="edgeStyle=none;html=1;labelBackgroundColor=none;endArrow=none;endFill=0;strokeWidth=2;fontFamily=Verdana;fontSize=28;fontColor=#6881B3;" parent="1" source="7c3789c024ecab99-58" target="7c3789c024ecab99-54" edge="1">
          <mxGeometry relative="1" as="geometry">
            <mxPoint x="1570" y="827" as="targetPoint" />
          </mxGeometry>
        </mxCell>
        <mxCell id="7c3789c024ecab99-58" value="" style="fontColor=#0066CC;verticalAlign=top;verticalLabelPosition=bottom;labelPosition=center;align=center;html=1;fillColor=#CCCCCC;strokeColor=#6881B3;gradientColor=none;gradientDirection=north;strokeWidth=2;shape=mxgraph.networks.server_storage;rounded=0;shadow=0;comic=0;" parent="1" vertex="1">
          <mxGeometry x="1540" y="605" width="105" height="105" as="geometry" />
        </mxCell>
        <mxCell id="7c3789c024ecab99-76" value="Campus 2" style="html=1;fillColor=#CCCCCC;strokeColor=#6881B3;gradientColor=none;gradientDirection=north;strokeWidth=2;shape=mxgraph.networks.cloud;fontColor=#6881B3;rounded=0;shadow=0;comic=0;align=center;fontSize=28;" parent="1" vertex="1">
          <mxGeometry x="1740" y="1044" width="330" height="140" as="geometry" />
        </mxCell>
        <mxCell id="wICfZG6G__5qb2g4NHoL-1" value="" style="ellipse;shape=cloud;whiteSpace=wrap;html=1;" vertex="1" parent="1">
          <mxGeometry x="440" y="-715" width="230" height="390" as="geometry" />
        </mxCell>
        <mxCell id="wICfZG6G__5qb2g4NHoL-2" value="" style="fontColor=#0066CC;verticalAlign=top;verticalLabelPosition=bottom;labelPosition=center;align=center;html=1;outlineConnect=0;fillColor=#CCCCCC;strokeColor=#6881B3;gradientColor=none;gradientDirection=north;strokeWidth=2;shape=mxgraph.networks.security_camera;" vertex="1" parent="1">
          <mxGeometry x="160" y="-750" width="100" height="75" as="geometry" />
        </mxCell>
        <mxCell id="wICfZG6G__5qb2g4NHoL-3" value="" style="fontColor=#0066CC;verticalAlign=top;verticalLabelPosition=bottom;labelPosition=center;align=center;html=1;outlineConnect=0;fillColor=#CCCCCC;strokeColor=#6881B3;gradientColor=none;gradientDirection=north;strokeWidth=2;shape=mxgraph.networks.security_camera;" vertex="1" parent="1">
          <mxGeometry x="160" y="-600" width="100" height="75" as="geometry" />
        </mxCell>
        <mxCell id="wICfZG6G__5qb2g4NHoL-4" value="" style="fontColor=#0066CC;verticalAlign=top;verticalLabelPosition=bottom;labelPosition=center;align=center;html=1;outlineConnect=0;fillColor=#CCCCCC;strokeColor=#6881B3;gradientColor=none;gradientDirection=north;strokeWidth=2;shape=mxgraph.networks.security_camera;" vertex="1" parent="1">
          <mxGeometry x="160" y="-400" width="100" height="75" as="geometry" />
        </mxCell>
        <mxCell id="wICfZG6G__5qb2g4NHoL-5" value="" style="fontColor=#0066CC;verticalAlign=top;verticalLabelPosition=bottom;labelPosition=center;align=center;html=1;outlineConnect=0;fillColor=#CCCCCC;strokeColor=#6881B3;gradientColor=none;gradientDirection=north;strokeWidth=2;shape=mxgraph.networks.pc;" vertex="1" parent="1">
          <mxGeometry x="400" y="-240" width="100" height="70" as="geometry" />
        </mxCell>
        <mxCell id="wICfZG6G__5qb2g4NHoL-6" value="" style="fontColor=#0066CC;verticalAlign=top;verticalLabelPosition=bottom;labelPosition=center;align=center;html=1;outlineConnect=0;fillColor=#CCCCCC;strokeColor=#6881B3;gradientColor=none;gradientDirection=north;strokeWidth=2;shape=mxgraph.networks.desktop_pc;" vertex="1" parent="1">
          <mxGeometry x="840" y="-640" width="70" height="100" as="geometry" />
        </mxCell>
        <mxCell id="wICfZG6G__5qb2g4NHoL-7" value="" style="fontColor=#0066CC;verticalAlign=top;verticalLabelPosition=bottom;labelPosition=center;align=center;html=1;outlineConnect=0;fillColor=#CCCCCC;strokeColor=#6881B3;gradientColor=none;gradientDirection=north;strokeWidth=2;shape=mxgraph.networks.pc;" vertex="1" parent="1">
          <mxGeometry x="600" y="-240" width="100" height="70" as="geometry" />
        </mxCell>
        <mxCell id="wICfZG6G__5qb2g4NHoL-9" value="" style="endArrow=classic;startArrow=classic;html=1;" edge="1" parent="1" source="wICfZG6G__5qb2g4NHoL-2">
          <mxGeometry width="50" height="50" relative="1" as="geometry">
            <mxPoint x="500" y="-450" as="sourcePoint" />
            <mxPoint x="460" y="-580" as="targetPoint" />
          </mxGeometry>
        </mxCell>
        <mxCell id="wICfZG6G__5qb2g4NHoL-10" value="" style="endArrow=classic;startArrow=classic;html=1;" edge="1" parent="1">
          <mxGeometry width="50" height="50" relative="1" as="geometry">
            <mxPoint x="270" y="-540" as="sourcePoint" />
            <mxPoint x="470" y="-510" as="targetPoint" />
          </mxGeometry>
        </mxCell>
        <mxCell id="wICfZG6G__5qb2g4NHoL-11" value="" style="endArrow=classic;startArrow=classic;html=1;exitX=0.9;exitY=0.93;exitDx=0;exitDy=0;exitPerimeter=0;" edge="1" parent="1" source="wICfZG6G__5qb2g4NHoL-4">
          <mxGeometry width="50" height="50" relative="1" as="geometry">
            <mxPoint x="500" y="-450" as="sourcePoint" />
            <mxPoint x="460" y="-440" as="targetPoint" />
          </mxGeometry>
        </mxCell>
        <mxCell id="wICfZG6G__5qb2g4NHoL-12" value="" style="endArrow=classic;startArrow=classic;html=1;exitX=0.6;exitY=0;exitDx=0;exitDy=0;exitPerimeter=0;entryX=0.322;entryY=0.823;entryDx=0;entryDy=0;entryPerimeter=0;" edge="1" parent="1" source="wICfZG6G__5qb2g4NHoL-5" target="wICfZG6G__5qb2g4NHoL-1">
          <mxGeometry width="50" height="50" relative="1" as="geometry">
            <mxPoint x="500" y="-450" as="sourcePoint" />
            <mxPoint x="550" y="-500" as="targetPoint" />
          </mxGeometry>
        </mxCell>
        <mxCell id="wICfZG6G__5qb2g4NHoL-13" value="" style="endArrow=classic;startArrow=classic;html=1;" edge="1" parent="1" source="wICfZG6G__5qb2g4NHoL-7">
          <mxGeometry width="50" height="50" relative="1" as="geometry">
            <mxPoint x="500" y="-450" as="sourcePoint" />
            <mxPoint x="600" y="-360" as="targetPoint" />
          </mxGeometry>
        </mxCell>
        <mxCell id="wICfZG6G__5qb2g4NHoL-14" value="" style="endArrow=classic;startArrow=classic;html=1;entryX=0.875;entryY=0.5;entryDx=0;entryDy=0;entryPerimeter=0;" edge="1" parent="1" source="wICfZG6G__5qb2g4NHoL-6" target="wICfZG6G__5qb2g4NHoL-1">
          <mxGeometry width="50" height="50" relative="1" as="geometry">
            <mxPoint x="500" y="-450" as="sourcePoint" />
            <mxPoint x="550" y="-500" as="targetPoint" />
          </mxGeometry>
        </mxCell>
      </root>
    </mxGraphModel>
  </diagram>
</mxfile>
